<?xml version="1.0" encoding="UTF-8"?>
<svg width="222px" height="45px" viewBox="0 0 222 45" version="1.1" xmlns="http://www.w3.org/2000/svg" xmlns:xlink="http://www.w3.org/1999/xlink">
    <!-- Generator: Sketch 50 (54983) - http://www.bohemiancoding.com/sketch -->
    <desc>Created with Sketch.</desc>
    <defs></defs>
    <g id="Product" stroke="none" stroke-width="1" fill="none" fill-rule="evenodd">
        <path d="M164.933118,45 C163.973244,45 163.461311,44.1760563 163.84526,43.3521127 L183.746648,0.697183099 C183.938623,0.316901408 184.258581,0 184.834505,0 L185.474421,0 C186.114337,0 186.370304,0.316901408 186.562278,0.697183099 L206.271691,43.3521127 C206.655641,44.1760563 206.143708,45 205.183834,45 L199.616565,45 C198.656691,45 198.20875,44.6197183 197.760809,43.7323944 L194.62522,36.8873239 L175.491732,36.8873239 L172.356143,43.7323944 C172.100177,44.3661972 171.524252,45 170.500387,45 L164.933118,45 Z M178.62732,29.8521127 L191.489632,29.8521127 L185.090472,15.9084507 L184.898497,15.9084507 L178.62732,29.8521127 Z M213.6171,43.7957746 L213.6171,1.83802817 C213.6171,1.20422535 214.193025,0.633802817 214.832941,0.633802817 L220.78416,0.633802817 C221.424076,0.633802817 222,1.20422535 222,1.83802817 L222,43.7957746 C222,44.4295775 221.424076,45 220.78416,45 L214.832941,45 C214.193025,45 213.6171,44.4295775 213.6171,43.7957746 Z M123.012049,1.53418372 C123.012049,1.20513535 123.026688,0.885541321 123.208036,0.598944823 C123.426714,0.253026928 123.716028,0.0394698993 124.144052,0.0400260374 C129.495357,0.0476265914 134.849224,-0.058225026 140.197236,0.0798826009 C149.980117,0.332369296 158.751953,7.82707164 160.811189,17.5244516 C163.405318,29.7394687 155.967876,41.5533249 143.937824,44.3162189 C142.312468,44.689573 140.661859,44.8395449 138.993682,44.8363934 C134.130239,44.8269391 129.266797,44.833242 124.403355,44.8328712 C123.45398,44.8326859 123.015342,44.3903707 123.01516,43.4199097 C123.013513,36.4235071 123.014245,29.4271045 123.014245,22.4307019 C123.014245,15.4652576 123.014977,8.49962798 123.012049,1.53418372 Z M131.229855,22.3381976 L131.229855,25.3038967 C131.229855,29.0417008 131.231868,32.7795049 131.226012,36.5173091 C131.225646,36.8100231 131.222352,37.0167211 131.620731,36.985392 C132.120855,36.9459062 132.626468,36.9844651 133.129337,36.9744546 C135.521074,36.9268121 137.921411,37.1372177 140.303449,36.8420937 C144.334999,36.3426817 147.606573,34.4547782 149.975069,31.093665 C152.077309,28.1101695 152.847898,24.7377481 152.579446,21.1043125 C152.330207,17.7294812 151.158128,14.736346 148.873992,12.2485549 C146.059721,9.18349246 142.51146,7.78999577 138.42062,7.7447632 C136.17967,7.71992237 133.938172,7.74976845 131.69704,7.73048899 C131.321718,7.72733754 131.219058,7.81372433 131.220339,8.20543093 C131.235162,12.9162913 131.229855,17.6273371 131.229855,22.3381976 Z M104.115618,27.6739533 C104.118912,19.2391922 104.118363,10.8046165 104.118912,2.37004074 C104.118912,2.18484675 104.114155,1.99835511 104.131539,1.81445878 C104.194489,1.14801996 104.641727,0.688093759 105.296664,0.683273896 C107.279043,0.668072788 109.261421,0.667702029 111.243799,0.680307826 C111.934969,0.684756931 112.467117,1.25924758 112.489625,1.96294765 C112.493468,2.08641031 112.49054,2.21005835 112.49054,2.33370638 L112.49054,43.3483347 C112.49054,44.416676 112.078986,44.7516565 111.036467,44.8550982 C110.034389,44.9546469 109.398667,44.5555252 108.733116,43.8418146 C100.429013,34.9373022 92.0945333,26.0615236 83.767922,17.1787005 C83.6442178,17.0468958 83.5201476,16.9154619 83.310985,16.6930066 L83.310985,17.287889 C83.310985,25.9388024 83.311168,34.5897159 83.310985,43.2406293 C83.310802,44.4339163 82.9230369,44.8324819 81.7610224,44.8328527 C80.0379471,44.8334088 78.3146889,44.8343357 76.5916136,44.8324819 C75.5902682,44.831555 75.0861186,44.3139759 75.0861186,43.2856765 C75.0853867,29.4289397 75.0857923,15.5720176 75.0819494,1.71528082 C75.0819494,1.58391607 75.0428382,0.269194493 76.1498311,0.0800494423 C77.256824,-0.109095609 77.6650587,-0.0337734878 78.7165446,1.09425995 C86.9353721,9.91034641 95.1541996,18.7266182 103.373027,27.5425193 C103.590242,27.7755412 103.809469,28.0067093 104.039859,28.25141 C104.170883,28.0411898 104.115435,27.8517321 104.115618,27.6739533 Z M36.289473,1.60060515 C36.289473,0.46942026 36.715484,0.0413793068 37.8398016,0.0413793068 C46.226801,0.0411939274 54.6138004,0.0411939274 63.0009828,0.0415646861 C64.038561,0.0415646861 64.5439916,0.550987181 64.5447235,1.5965268 C64.5456385,3.12590656 64.5456385,4.65528632 64.5447235,6.1844807 C64.5441746,7.28674641 64.103341,7.73925744 63.0289809,7.73944282 C57.0209087,7.73981357 51.0126536,7.7440773 45.0043984,7.72961771 C44.6054706,7.72869081 44.5048237,7.81915594 44.5072026,8.22977124 C44.5266,11.3966069 44.526783,14.5634426 44.5075686,17.7302783 C44.5050067,18.1631391 44.5893671,18.2951292 45.0453891,18.2932754 C49.8945578,18.273996 54.7440924,18.3110719 59.592712,18.2621317 C60.9558373,18.248599 61.5152512,18.8614632 61.4537651,20.1767298 C61.3882531,21.5793101 61.3899001,22.990047 61.4548631,24.3926273 C61.5053695,25.4793211 60.900939,26.1542874 59.7519172,26.1440915 C54.8571829,26.1016397 49.9620827,26.1346372 45.0671655,26.1127624 C44.5836942,26.1107233 44.5051896,26.2551338 44.5077516,26.7018981 C44.526417,30.0848861 44.5234891,33.4680595 44.5097645,36.8512329 C44.5084835,37.2092005 44.591746,37.3109737 44.9568198,37.3102322 C50.964892,37.2976264 56.9731472,37.3187597 62.9812194,37.2844645 C64.0036091,37.2787177 64.5897402,38.0369193 64.5602781,38.8833615 C64.5064777,40.4260886 64.5465535,41.9723379 64.5443576,43.5171041 C64.5428936,44.5233433 64.0777218,44.9992121 63.0941269,44.9993975 C54.6460074,45.000139 46.1980709,45.0003244 37.7499513,44.9992121 C36.8192418,44.9992121 36.290022,44.4536407 36.289839,43.4954147 C36.288924,36.4975291 36.28929,29.4996434 36.28929,22.5017578 C36.28929,15.5346451 36.28929,8.56753244 36.289473,1.60060515 Z M0.00121490958,1.7137051 C0.00121490958,1.51349538 0.000848920773,1.31069036 0.0306770082,1.11363209 C0.127847035,0.469438798 0.575085352,0.0504814336 1.21282084,0.0469592257 C3.17946167,0.0358364638 5.1461025,0.035465705 7.11274333,0.0452908114 C7.8198337,0.0486276399 8.37174481,0.628123535 8.38235849,1.35388375 C8.39278917,2.0640721 8.38492041,2.7746312 8.38492041,3.48519031 C8.38492041,14.5738424 8.38748233,25.6626799 8.37522171,36.751332 C8.37467272,37.180856 8.4507984,37.315256 8.90901638,37.3134022 C14.0160241,37.2943081 19.1232149,37.3011672 24.2304056,37.3015379 C25.2721927,37.3017233 25.7673756,37.8028037 25.7677416,38.8559439 C25.7682906,40.4312977 25.7701205,42.0064662 25.7670096,43.5818201 C25.7651797,44.5224349 25.2901262,44.9990453 24.3520969,44.9990453 C16.7446536,45.000343 9.13739339,44.9999722 1.52995014,44.9997868 C0.4427804,44.9996014 0.00103191517,44.5574716 0.000848920773,43.4587282 C-0.000432040036,36.4780828 0.000116943168,29.497252 0.000116943168,22.5166067 C0.000116943168,15.5823061 -6.60512336e-05,8.64800562 0.00121490958,1.7137051 Z" id="Temporary-Logo-Name" fill="#FFFFFF"></path>
    </g>
</svg>