<?xml version="1.0" encoding="UTF-8"?>
<svg width="128px" height="128px" viewBox="0 0 128 128" version="1.1" xmlns="http://www.w3.org/2000/svg" xmlns:xlink="http://www.w3.org/1999/xlink">
    <!-- Generator: Sketch 52.2 (67145) - http://www.bohemiancoding.com/sketch -->
    <title>Icon/Large/Metamask</title>
    <desc>Created with Sketch.</desc>
    <g id="Icon/Large/Metamask" stroke="none" stroke-width="1" fill="none" fill-rule="evenodd">
        <g id="Metamask" transform="translate(11.000000, 9.000000)">
            <path d="M77.0433309,71.4588338 L77.968,66.176 L84.5303561,69.388 L77.968,72.8221999 L77.0433309,71.4588338 Z M61.3451599,74.6603299 L47.6772086,71.5593476 L56.2753901,67.1 L61.3451599,74.6603299 Z M78.1587283,89.6390698 L88.0436199,88.5230337 L91.3120114,90.5159554 L92.3217584,91.8179975 L90.6477042,97.8764794 L77.2818428,99.7365397 L74.6777584,100.772859 L76.3518126,91.2599794 L78.1587283,89.6390698 Z" id="Metamask-Solid" fill="#FFFFFF"></path>
            <path d="M10.8678665,57.2191683 L4.54747351e-13,84.0291525 L6.64159689,109.979379 L40.4564106,99.4663205 L71.8598089,108.372 L86.3997602,106.36149 L90.8362935,97.164296 L93.4634054,97.8271604 L99.9271374,76.251283 L96.6518162,55.6476713 L100.555204,50.424 L98.8678745,48.997398 L101.691902,46.2554404 L99.3888497,44.3107881 L102.322044,42.0786033 L100.194231,40.3541764 L105.208791,25.040705 L104.448558,10.0975262 L67.76806,18.7306956 L40.624198,16.5227943 L14.7038416,0.0355250895 L4.21962945,17.9715168 L5.39455933,38.0611593 L3.23288476,40.1063042 L6.774199,43.1064079 L4.36188119,45.5282486 L7.80428258,49.0497624 L6.14226931,50.908697 L10.8678665,57.2191683 Z M0.171482355,84.0291525 L32.7360457,82.808 L40.5209836,99.4962538 L48.9014924,82.028375 L32.7360457,82.808 L48.9014924,82.028375 L76.1404504,91.307798 L71.8704395,108.372 L40.5209836,99.4962538 L76.1404504,91.307798 L78.0440166,89.7106851 L61.3040798,74.6447209 L61.9110618,61.9048467 L65.4097598,70.1002337 L78.0440166,89.7106851 L88.0411357,88.4838555 L86.7927144,85.6791391 L93.1890039,77.5894129 L99.8700981,76.251283 L85.0288579,78.8712634 L90.5643654,59.7010214 L84.5894791,69.4980436 L85.0288579,78.8712634 L86.7927144,85.6791391 L74.8883419,69.4980436 L73.6659512,61.6196194 L90.5643654,59.7010214 L78.5112419,49.7043168 L96.7202803,55.6476713 L78.5112419,49.7043168 L68.0890135,36.5797125 L73.6659512,61.6196194 L68.0890135,36.5797125 L67.6680747,18.7120898 L102.674528,11.616 L68.0890135,36.5797125 L67.6680747,18.7120898 L40.6977492,16.5345064 L14.6750644,0.22 L53.196,35.64 L34.5629661,49.7043168 L10.9472539,57.3495129 L34.5629661,49.7043168 L35.9840507,61.4172551 L48.9014924,82.028375 L47.7536438,71.588 L35.9840507,61.4172551 L61.9110618,61.9048467 L53.196,35.64 L40.6977492,16.5345064" id="Metamask-Line" stroke="#FFFFFF" stroke-width="3" stroke-linecap="round" stroke-linejoin="round"></path>
        </g>
    </g>
</svg>