<?xml version="1.0" encoding="UTF-8"?>
<svg width="94px" height="118px" viewBox="0 0 94 118" version="1.1" xmlns="http://www.w3.org/2000/svg" xmlns:xlink="http://www.w3.org/1999/xlink">
    <!-- Generator: Sketch 52.3 (67297) - http://www.bohemiancoding.com/sketch -->
    <title>Page</title>
    <desc>Created with Sketch.</desc>
    <g id="Marketing-Site" stroke="none" stroke-width="1" fill="none" fill-rule="evenodd">
        <g id="Requirements---404" transform="translate(-673.000000, -457.000000)" fill="#FFFFFF">
            <g id="Group" transform="translate(595.000000, 404.000000)">
                <path d="M84,53 L139,53 L172,86 L172,165 C172,168.313708 169.313708,171 166,171 L84,171 C80.6862915,171 78,168.313708 78,165 L78,59 C78,55.6862915 80.6862915,53 84,53 Z M120,94 L120,118 C120,119.656854 121.343146,121 123,121 L127,121 C128.656854,121 130,119.656854 130,118 L130,94 C130,92.3431458 128.656854,91 127,91 L123,91 C121.343146,91 120,92.3431458 120,94 Z M120,134 L120,138 C120,139.656854 121.343146,141 123,141 L127,141 C128.656854,141 130,139.656854 130,138 L130,134 C130,132.343146 128.656854,131 127,131 L123,131 C121.343146,131 120,132.343146 120,134 Z" id="Page"></path>
            </g>
        </g>
    </g>
</svg>