<?xml version="1.0" encoding="UTF-8"?>
<svg width="425px" height="98px" viewBox="0 0 425 98" version="1.1" xmlns="http://www.w3.org/2000/svg" xmlns:xlink="http://www.w3.org/1999/xlink">
    <!-- Generator: Sketch 52.2 (67145) - http://www.bohemiancoding.com/sketch -->
    <title>Browsers</title>
    <desc>Created with Sketch.</desc>
    <g id="Marketing-Site" stroke="none" stroke-width="1" fill="none" fill-rule="evenodd">
        <g id="Requirements---Desktop" transform="translate(-268.000000, -468.000000)" fill="#FFFFFF">
            <g id="Browsers" transform="translate(262.000000, 469.000000)">
                <g id="Status" transform="translate(355.000000, 1.000000)">
                    <path d="M50,42 C38.4022727,42 29,32.5977273 29,21 C29,9.40227273 38.4022727,0 50,0 C61.5977273,0 71,9.40227273 71,21 C71,32.5977273 61.5977273,42 50,42 Z M53.2314545,20.4457273 L53.2315182,20.4458545 L53.2318364,20.4455364 C56.4533636,20.2634091 58.4047091,18.5854455 58.2661091,16.0772818 C58.1252818,13.5254 55.5287909,11.9534545 52.9309636,12.1003909 C48.6976818,12.3403 45.5845909,16.1111364 45.2335091,20.4221182 C45.8084,20.2879727 46.3942364,20.2042273 46.9841455,20.1717091 C49.3627455,20.0371182 50.8531727,20.5800636 53.2314545,20.4457273 Z M46.8449091,29.2638182 L46.8448455,29.2636273 C50.9005182,29.0396273 53.8826455,25.5102909 54.2183909,21.4758091 C53.6673,21.6013636 53.1062182,21.6798273 52.5413818,21.7101182 C50.2632636,21.8363091 48.8352636,21.3279182 46.5571455,21.4537909 C43.4709727,21.6242727 41.6012727,23.1946273 41.7340818,25.5420455 C41.8691818,27.93 44.3562182,29.4015909 46.8449091,29.2638182 Z" fill-opacity="0.3" fill-rule="nonzero"></path>
                    <path d="M24.5664063,89.8671875 L26.8476563,89.8671875 C26.9570313,90.78125 27.8789063,91.3671875 29.2070313,91.3671875 C30.4335938,91.3671875 31.3007813,90.7734375 31.3007813,89.921875 C31.3007813,89.203125 30.7382813,88.7890625 29.3554688,88.4921875 L27.8867188,88.1796875 C25.8320313,87.75 24.8242188,86.6796875 24.8242188,84.9609375 C24.8242188,82.8359375 26.5351563,81.4375 29.1367188,81.4375 C31.6210938,81.4375 33.3789063,82.828125 33.4492188,84.8359375 L31.2304688,84.8359375 C31.1210938,83.9453125 30.2929688,83.3515625 29.1523438,83.3515625 C27.9726563,83.3515625 27.1914063,83.8984375 27.1914063,84.7578125 C27.1914063,85.453125 27.7304688,85.8515625 29.0507813,86.1328125 L30.4101563,86.421875 C32.6757813,86.8984375 33.6523438,87.875 33.6523438,89.625 C33.6523438,91.8984375 31.9101563,93.2890625 29.0820313,93.2890625 C26.3945313,93.2890625 24.6523438,91.96875 24.5664063,89.8671875 Z M36.3007813,82.3359375 L38.5742188,82.3359375 L38.5742188,84.46875 L40.3632813,84.46875 L40.3632813,86.2578125 L38.5742188,86.2578125 L38.5742188,90.1328125 C38.5742188,90.8828125 38.9179688,91.2265625 39.6914063,91.2265625 C39.9882813,91.2265625 40.1445313,91.21875 40.3632813,91.1953125 L40.3632813,92.9296875 C40.0820313,92.984375 39.6601563,93.03125 39.2226563,93.03125 C37.1289063,93.03125 36.3007813,92.3515625 36.3007813,90.671875 L36.3007813,86.2578125 L34.9570313,86.2578125 L34.9570313,84.46875 L36.3007813,84.46875 L36.3007813,82.3359375 Z M45.3632813,91.421875 C46.4179688,91.421875 47.2148438,90.75 47.2148438,89.875 L47.2148438,89.2421875 L45.4726563,89.3515625 C44.4960938,89.421875 44.0195313,89.7734375 44.0195313,90.390625 C44.0195313,91.03125 44.5742188,91.421875 45.3632813,91.421875 Z M44.6132813,93.1328125 C42.9570313,93.1328125 41.7929688,92.1171875 41.7929688,90.5390625 C41.7929688,88.9765625 42.9882813,88.0703125 45.1289063,87.9453125 L47.2148438,87.8203125 L47.2148438,87.1171875 C47.2148438,86.3984375 46.6992188,85.9921875 45.7617188,85.9921875 C44.9414063,85.9921875 44.3945313,86.2734375 44.2070313,86.7890625 L42.1132813,86.7890625 C42.2617188,85.1953125 43.7226563,84.1953125 45.8867188,84.1953125 C48.1679688,84.1953125 49.4570313,85.2734375 49.4570313,87.1171875 L49.4570313,93 L47.2539063,93 L47.2539063,91.875 L47.1132813,91.875 C46.6679688,92.6640625 45.7304688,93.1328125 44.6132813,93.1328125 Z M52.3398438,82.3359375 L54.6132813,82.3359375 L54.6132813,84.46875 L56.4023438,84.46875 L56.4023438,86.2578125 L54.6132813,86.2578125 L54.6132813,90.1328125 C54.6132813,90.8828125 54.9570313,91.2265625 55.7304688,91.2265625 C56.0273438,91.2265625 56.1835938,91.21875 56.4023438,91.1953125 L56.4023438,92.9296875 C56.1210938,92.984375 55.6992188,93.03125 55.2617188,93.03125 C53.1679688,93.03125 52.3398438,92.3515625 52.3398438,90.671875 L52.3398438,86.2578125 L50.9960938,86.2578125 L50.9960938,84.46875 L52.3398438,84.46875 L52.3398438,82.3359375 Z M66.0898438,84.3828125 L66.0898438,93 L63.8867188,93 L63.8867188,91.6171875 L63.7460938,91.6171875 C63.3398438,92.6171875 62.5351563,93.1875 61.2304688,93.1875 C59.3710938,93.1875 58.2148438,92 58.2148438,90 L58.2148438,84.3828125 L60.4882813,84.3828125 L60.4882813,89.4140625 C60.4882813,90.6015625 61.0273438,91.2109375 62.0742188,91.2109375 C63.2070313,91.2109375 63.8164063,90.5 63.8164063,89.3515625 L63.8164063,84.3828125 L66.0898438,84.3828125 Z M68.1757813,86.9140625 C68.1757813,85.28125 69.6132813,84.1953125 71.7617188,84.1953125 C73.9492188,84.1953125 75.2382813,85.109375 75.3632813,86.7578125 L73.2617188,86.7578125 C73.1445313,86.203125 72.6210938,85.859375 71.7773438,85.859375 C70.9648438,85.859375 70.3632813,86.2265625 70.3632813,86.7734375 C70.3632813,87.1953125 70.7304688,87.453125 71.5273438,87.6328125 L73.1445313,87.984375 C74.8164063,88.3515625 75.5664063,89.0546875 75.5664063,90.34375 C75.5664063,92.0625 74.0273438,93.1875 71.7695313,93.1875 C69.4960938,93.1875 68.1210938,92.2578125 67.9648438,90.6015625 L70.1835938,90.6015625 C70.3554688,91.1875 70.9101563,91.5234375 71.8164063,91.5234375 C72.6992188,91.5234375 73.3085938,91.15625 73.3085938,90.6015625 C73.3085938,90.1796875 72.9804688,89.921875 72.2226563,89.7578125 L70.6601563,89.40625 C68.9882813,89.0390625 68.1757813,88.2421875 68.1757813,86.9140625 Z" fill-opacity="0.5"></path>
                </g>
                <g id="Chrome-+-Metamask">
                    <g id="Icons" opacity="0.3" transform="translate(40.500000, 0.000000)" fill-rule="nonzero">
                        <path d="M13.1516459,21.9998623 C13.1516459,17.6723475 16.6723475,14.1516459 21,14.1516459 C25.327377,14.1516459 28.8478033,17.6723475 28.8478033,21.9998623 C28.8478033,26.3272393 25.327377,29.8478033 21,29.8478033 C16.6723475,29.8478033 13.1516459,26.327377 13.1516459,21.9998623 Z M39.0714295,11.6403213 C39.0102885,11.7480066 38.8959934,11.8143803 38.7721967,11.8143803 L21.9183541,11.8143803 C21.908577,11.8143803 21.8986623,11.8139672 21.8888852,11.8130033 C21.5884131,11.7873902 21.2894557,11.7741705 21,11.7741705 C16.3352459,11.7741705 12.2631738,14.928577 11.0975016,19.4451607 C11.0625246,19.5805246 10.9491934,19.6813246 10.8106623,19.7001902 C10.7951016,19.7022557 10.7794033,19.7033574 10.7639803,19.7033574 C10.6422492,19.7033574 10.5279541,19.6386361 10.4659869,19.5312262 L4.55431475,9.29217705 C4.48339672,9.16948197 4.49496393,9.01594098 4.5835082,8.90522623 C8.5959541,3.8813377 14.5795082,1 21,1 C24.7099082,1 28.3564721,1.98073443 31.5450295,3.8363082 C34.6387082,5.63652459 37.2402295,8.2154623 39.0682623,11.2942689 C39.1314689,11.4007148 39.1325705,11.5327738 39.0714295,11.6403213 Z M24.1031803,31.973141 C24.1888328,32.083718 24.1991607,32.2351934 24.1292066,32.3563738 L18.2160197,42.5985902 C18.1539148,42.706 18.0396197,42.7707213 17.9180262,42.7707213 C17.9010885,42.7707213 17.8840131,42.7696197 17.8669377,42.7670033 C12.9432984,42.030282 8.42409836,39.5440197 5.14148852,35.7660852 C1.82596721,31.9501443 0,27.0612066 0,21.9998623 C0,18.3919934 0.93184918,14.8316328 2.69460984,11.7036656 C2.7552,11.5959803 2.86908197,11.5291934 2.99274098,11.5285049 L2.99453115,11.5285049 C3.11750164,11.5285049 3.2312459,11.5939148 3.2926623,11.7006361 L11.7257115,26.3067213 C11.7305311,26.315259 11.7350754,26.3237967 11.7392066,26.3326098 C13.4209967,29.9123869 17.0559934,32.2255541 21,32.2255541 C21.9282689,32.2255541 22.8496525,32.1001049 23.7388131,31.8525115 C23.874177,31.8150557 24.0176656,31.8625639 24.1031803,31.973141 Z M40.2339344,14.1114361 C40.3754951,14.1114361 40.5025967,14.1980525 40.5543738,14.3299738 C41.5136262,16.7731344 42,19.3535869 42,21.9998623 C42,27.5672721 39.8432656,32.8125902 35.9270754,36.769541 C32.0140525,40.7231869 26.797377,42.9348656 21.2382295,42.9968328 L21.2343738,42.9968328 C21.1122295,42.9968328 20.9990361,42.9321115 20.9372066,42.8264918 C20.8748262,42.7196328 20.8744131,42.5875738 20.9362426,42.4804393 L29.3838885,27.8490164 C29.3887082,27.8406164 29.3938033,27.8324918 29.3993115,27.8245049 C30.594177,26.1067738 31.2256918,24.0927016 31.2256918,21.9998623 C31.2256918,19.2352984 30.1347934,16.6434164 28.1539082,14.7015016 C28.0540721,14.6037311 28.0233639,14.4550098 28.0762426,14.3255672 C28.1289836,14.1961246 28.2549836,14.1114361 28.3948918,14.1114361 L40.2339344,14.1114361 Z" id="Chrome"></path>
                        <path d="M84.5006923,41.7323043 L89.1175318,41.3662281 L90.2027054,38.9972329 L88.5466368,39.1419065 L85.7507844,39.5309913 L85.1443153,39.7723412 L84.5006923,41.7323043 Z M83.6187154,41.6806587 L84.110242,40.1838602 L84.0915115,40.1913142 L84.7247409,36.5929629 L73.6525616,38.897481 L74.3767381,39.1143194 L83.6187154,41.6806587 Z M91.7982483,23.9792208 L91.8053817,23.9811359 L90.0640679,30.4671758 L91.5177723,30.0480672 L91.5185026,30.0506002 L93.9603439,29.6447626 L92.8452122,22.0647922 L87.9772139,20.428255 L91.8092435,23.9782091 L91.7982483,23.9792208 Z M90.5459617,25.3783479 L89.2426233,27.1881515 L89.4047897,29.6289817 L90.5459617,25.3783479 Z M89.626011,31.4823209 L90.1449496,33.0464312 L91.0358746,31.0758517 L89.626011,31.4823209 Z M93.8528917,30.5284022 L92.0880697,30.8217182 L90.3425484,34.6825239 L91.296875,35.2644304 L91.8623861,35.9936421 L91.3571897,37.8219721 L91.569638,37.8219721 L93.8528917,30.5284022 Z M88.9387497,32.1230604 L88.6584064,31.27809 L88.4037366,27.4449528 L86.4210865,28.4822334 L88.9387497,32.1230604 Z M88.4266002,26.8598023 L90.4090057,24.1070522 L84.7856506,24.6244864 L85.3690938,26.9609326 L85.4324072,27.0524909 L85.6820479,25.6420208 L88.4266002,26.8598023 Z M85.166774,34.9865792 L79.0240255,29.4082305 L79.0246583,29.3960546 L74.3321281,28.3361588 L74.7550097,32.047956 L84.651097,35.3742103 L85.166774,34.9865792 Z M84.3250126,33.0684815 L80.4679325,27.3228005 L80.0604314,25.9219862 L79.897956,29.0481857 L84.3250126,33.0684815 Z M79.2697495,24.6802397 L71.0970983,24.6802397 L74.2302207,27.7093122 L77.5308212,25.9982647 L79.0812217,28.3077154 L79.2697495,24.6802397 Z M86.00885,19.766525 L86.0081459,19.7662883 L82.5520649,15.6799093 L84.5762882,23.7860775 L89.8238853,23.3032188 L86.0076121,19.7678613 L86.00885,19.766525 Z M72.352249,7.31460131 L77.4491793,13.8913468 L77.4500063,13.8908486 L81.2509579,26.9568928 L86.4923609,34.7647237 L89.4928463,34.4259592 L84.5781573,27.3187607 L81.4482953,14.7849719 L81.6775378,7.91856634 L72.352249,7.31460131 Z M71.1350767,7.08898214 L65.1004941,3.34684907 L75.1782142,12.3552794 L71.1112078,7.10748037 L71.1350767,7.08898214 Z M82.5362332,7.79414092 L82.3224727,14.1968189 L93.8480388,5.37747513 L93.8435881,5.3594082 L82.5362332,7.79414092 Z M70.907174,25.6845671 L73.8483741,31.6350222 L73.4505903,28.1435175 L73.4418572,28.1350744 L73.4189211,28.1298939 L73.4303633,28.1239622 L70.907174,25.6845671 Z M68.4596628,31.87147 L68.4596628,31.8696593 L73.0116509,31.8696593 L69.4580534,24.6802397 L69.4477506,24.6802397 L69.4427989,24.6493776 L69.4369378,24.6375199 L69.4406055,24.6357071 L68.706439,20.0599854 L60.2330883,22.8782966 L56.5762247,32.3598446 L68.4596628,31.87147 Z M68.9359206,32.7237247 L71.2437513,37.1978742 L73.6140866,32.7237247 L68.9359206,32.7237247 Z M71.6030148,38.3441038 L71.8244819,38.4056015 L83.6601866,35.9421663 L74.5056706,32.8651676 L71.6030148,38.3441038 Z M70.876266,38.3484918 L67.9862713,32.7457114 L56.4691951,33.2190295 L58.5057688,42.6527531 L70.876266,38.3484918 Z M69.5112855,19.6851452 L70.1757063,23.8261743 L79.4507534,23.8261743 L76.9399675,15.1951674 L70.0324723,19.3563322 L69.5112855,19.6851452 Z M68.699657,19.1621727 L69.5842141,18.629304 L76.2270568,14.4383817 L61.5186336,1.29058588 L57.6976542,7.60654913 L58.2687045,15.3133822 L57.5788196,15.8555472 L59.0977935,16.8595792 L57.9153557,17.9296598 L59.8156239,19.4911903 L58.5037594,20.3802168 L60.1921279,21.9918519 L68.699657,19.1621727 Z M91.4136452,38.6760376 L89.8917921,42.1712975 L83.8814625,42.8518258 L74.1399657,39.9349534 L71.2344659,39.1281457 L57.8746542,43.7766347 L55.5,32.7768699 L59.4700487,22.483293 L57.1483099,20.2670731 L58.3903167,19.4253879 L56.6080748,17.9608445 L57.7084612,16.9650187 L56.1204847,15.9153764 L57.3833649,14.9229073 L56.8257763,7.39775216 L61.3012075,0 L61.391641,0.054709733 L61.3981433,0.0460175346 L71.6678631,6.41442132 L81.8299398,7.07258205 L95.595654,4.10850821 L97.5,3.63937791 L97.0027356,10.1104674 L95.1736753,15.8405333 L96.4265818,17.0989503 L95.0364573,17.5530315 L95.7006982,18.3430935 L94.8198353,19.1753268 L95.1870736,19.961577 L93.6769429,21.8504881 L94.8878141,30.0812356 L92.1972095,38.6760376 L91.4136452,38.6760376 Z M93.0716508,21.2398804 L94.1888197,19.8424964 L93.7850461,18.9780248 L94.5283097,18.2757945 L93.5684242,17.1340867 L94.8421403,16.71803 L94.2022179,16.0752932 L96.1588152,9.94568058 L96.5579923,4.75103792 L95.8414197,4.92756358 L82.9316191,14.8061212 L86.5062918,19.0327199 L93.0716508,21.2398804 Z" id="Metamask" stroke="#FFFFFF" stroke-width="0.75"></path>
                    </g>
                    <path d="M11.7578125,94.2890625 C8.4921875,94.2890625 6.46875,92.03125 6.46875,88.359375 C6.46875,84.6953125 8.484375,82.4375 11.7578125,82.4375 C14.4296875,82.4375 16.4765625,84.2109375 16.6484375,86.6640625 L14.3515625,86.6640625 C14.125,85.3671875 13.1015625,84.515625 11.7578125,84.515625 C9.984375,84.515625 8.8828125,85.984375 8.8828125,88.359375 C8.8828125,90.734375 9.984375,92.2109375 11.765625,92.2109375 C13.1171875,92.2109375 14.1328125,91.4140625 14.359375,90.171875 L16.65625,90.171875 C16.4609375,92.609375 14.4765625,94.2890625 11.7578125,94.2890625 Z M18.6796875,94 L18.6796875,82.09375 L20.9140625,82.09375 L20.9140625,86.796875 L21.0546875,86.796875 C21.453125,85.8125 22.390625,85.21875 23.65625,85.21875 C25.5078125,85.21875 26.609375,86.3828125 26.609375,88.453125 L26.609375,94 L24.3359375,94 L24.3359375,88.9921875 C24.3359375,87.796875 23.78125,87.1796875 22.75,87.1796875 C21.609375,87.1796875 20.953125,87.9375 20.953125,89.0546875 L20.953125,94 L18.6796875,94 Z M28.8125,94 L28.8125,85.3828125 L31.015625,85.3828125 L31.015625,86.7578125 L31.15625,86.7578125 C31.3828125,85.8984375 32.2734375,85.2421875 33.3671875,85.2421875 C33.6796875,85.2421875 34.0625,85.28125 34.2578125,85.3515625 L34.2578125,87.421875 C34.078125,87.3515625 33.546875,87.28125 33.1796875,87.28125 C31.9375,87.28125 31.0859375,88.015625 31.0859375,89.2265625 L31.0859375,94 L28.8125,94 Z M39.3984375,94.1875 C36.75,94.1875 35.15625,92.5078125 35.15625,89.6875 C35.15625,86.8984375 36.7734375,85.1953125 39.3984375,85.1953125 C42.0234375,85.1953125 43.640625,86.890625 43.640625,89.6875 C43.640625,92.5078125 42.046875,94.1875 39.3984375,94.1875 Z M39.3984375,92.328125 C40.609375,92.328125 41.3046875,91.359375 41.3046875,89.6875 C41.3046875,88.03125 40.6015625,87.0546875 39.3984375,87.0546875 C38.1875,87.0546875 37.4921875,88.03125 37.4921875,89.6875 C37.4921875,91.3671875 38.1796875,92.328125 39.3984375,92.328125 Z M45.4921875,94 L45.4921875,85.3828125 L47.6953125,85.3828125 L47.6953125,86.7890625 L47.8359375,86.7890625 C48.1875,85.8046875 49.0859375,85.1953125 50.21875,85.1953125 C51.4296875,85.1953125 52.2578125,85.7890625 52.6015625,86.7890625 L52.7421875,86.7890625 C53.140625,85.828125 54.1328125,85.1953125 55.3359375,85.1953125 C57.0546875,85.1953125 58.125,86.3125 58.125,88.0859375 L58.125,94 L55.8515625,94 L55.8515625,88.6875 C55.8515625,87.6640625 55.375,87.15625 54.4140625,87.15625 C53.4921875,87.15625 52.8984375,87.8125 52.8984375,88.7265625 L52.8984375,94 L50.7109375,94 L50.7109375,88.59375 C50.7109375,87.6796875 50.1796875,87.15625 49.2890625,87.15625 C48.3984375,87.15625 47.765625,87.8515625 47.765625,88.8125 L47.765625,94 L45.4921875,94 Z M64.0546875,86.9375 C63,86.9375 62.2578125,87.671875 62.1796875,88.7890625 L65.8515625,88.7890625 C65.8046875,87.6484375 65.1171875,86.9375 64.0546875,86.9375 Z M65.8984375,91.546875 L68.015625,91.546875 C67.671875,93.171875 66.1875,94.1875 64.078125,94.1875 C61.453125,94.1875 59.90625,92.53125 59.90625,89.734375 C59.90625,86.9296875 61.484375,85.1953125 64.046875,85.1953125 C66.5859375,85.1953125 68.0859375,86.8125 68.0859375,89.546875 L68.0859375,90.2421875 L62.171875,90.2421875 L62.171875,90.359375 C62.203125,91.640625 62.953125,92.4375 64.140625,92.4375 C65.0390625,92.4375 65.65625,92.1171875 65.8984375,91.546875 Z M79.453125,90.4453125 L79.453125,93.640625 L77.4609375,93.640625 L77.4609375,90.4453125 L74.2421875,90.4453125 L74.2421875,88.4296875 L77.4609375,88.4296875 L77.4609375,85.2421875 L79.453125,85.2421875 L79.453125,88.4296875 L82.6796875,88.4296875 L82.6796875,90.4453125 L79.453125,90.4453125 Z M101.414063,94 L99.2265625,94 L99.2265625,86.4609375 L99.1015625,86.4609375 L96.234375,93.3515625 L94.6640625,93.3515625 L91.7890625,86.4609375 L91.6640625,86.4609375 L91.6640625,94 L89.4765625,94 L89.4765625,82.7265625 L92.2578125,82.7265625 L95.375,90.3046875 L95.515625,90.3046875 L98.640625,82.7265625 L101.414063,82.7265625 L101.414063,94 Z M107.648438,86.9375 C106.59375,86.9375 105.851563,87.671875 105.773438,88.7890625 L109.445313,88.7890625 C109.398438,87.6484375 108.710938,86.9375 107.648438,86.9375 Z M109.492188,91.546875 L111.609375,91.546875 C111.265625,93.171875 109.78125,94.1875 107.671875,94.1875 C105.046875,94.1875 103.5,92.53125 103.5,89.734375 C103.5,86.9296875 105.078125,85.1953125 107.640625,85.1953125 C110.179688,85.1953125 111.679688,86.8125 111.679688,89.546875 L111.679688,90.2421875 L105.765625,90.2421875 L105.765625,90.359375 C105.796875,91.640625 106.546875,92.4375 107.734375,92.4375 C108.632813,92.4375 109.25,92.1171875 109.492188,91.546875 Z M114.1875,83.3359375 L116.460938,83.3359375 L116.460938,85.46875 L118.25,85.46875 L118.25,87.2578125 L116.460938,87.2578125 L116.460938,91.1328125 C116.460938,91.8828125 116.804688,92.2265625 117.578125,92.2265625 C117.875,92.2265625 118.03125,92.21875 118.25,92.1953125 L118.25,93.9296875 C117.96875,93.984375 117.546875,94.03125 117.109375,94.03125 C115.015625,94.03125 114.1875,93.3515625 114.1875,91.671875 L114.1875,87.2578125 L112.84375,87.2578125 L112.84375,85.46875 L114.1875,85.46875 L114.1875,83.3359375 Z M123.25,92.421875 C124.304688,92.421875 125.101562,91.75 125.101562,90.875 L125.101562,90.2421875 L123.359375,90.3515625 C122.382812,90.421875 121.90625,90.7734375 121.90625,91.390625 C121.90625,92.03125 122.460938,92.421875 123.25,92.421875 Z M122.5,94.1328125 C120.84375,94.1328125 119.679688,93.1171875 119.679688,91.5390625 C119.679688,89.9765625 120.875,89.0703125 123.015625,88.9453125 L125.101562,88.8203125 L125.101562,88.1171875 C125.101562,87.3984375 124.585938,86.9921875 123.648438,86.9921875 C122.828125,86.9921875 122.28125,87.2734375 122.09375,87.7890625 L120,87.7890625 C120.148438,86.1953125 121.609375,85.1953125 123.773438,85.1953125 C126.054688,85.1953125 127.34375,86.2734375 127.34375,88.1171875 L127.34375,94 L125.140625,94 L125.140625,92.875 L125,92.875 C124.554688,93.6640625 123.617188,94.1328125 122.5,94.1328125 Z M129.578125,94 L129.578125,85.3828125 L131.78125,85.3828125 L131.78125,86.7890625 L131.921875,86.7890625 C132.273438,85.8046875 133.171875,85.1953125 134.304688,85.1953125 C135.515625,85.1953125 136.34375,85.7890625 136.6875,86.7890625 L136.828125,86.7890625 C137.226562,85.828125 138.21875,85.1953125 139.421875,85.1953125 C141.140625,85.1953125 142.210938,86.3125 142.210938,88.0859375 L142.210938,94 L139.9375,94 L139.9375,88.6875 C139.9375,87.6640625 139.460938,87.15625 138.5,87.15625 C137.578125,87.15625 136.984375,87.8125 136.984375,88.7265625 L136.984375,94 L134.796875,94 L134.796875,88.59375 C134.796875,87.6796875 134.265625,87.15625 133.375,87.15625 C132.484375,87.15625 131.851562,87.8515625 131.851562,88.8125 L131.851562,94 L129.578125,94 Z M147.523438,92.421875 C148.578125,92.421875 149.375,91.75 149.375,90.875 L149.375,90.2421875 L147.632812,90.3515625 C146.65625,90.421875 146.179688,90.7734375 146.179688,91.390625 C146.179688,92.03125 146.734375,92.421875 147.523438,92.421875 Z M146.773438,94.1328125 C145.117188,94.1328125 143.953125,93.1171875 143.953125,91.5390625 C143.953125,89.9765625 145.148438,89.0703125 147.289062,88.9453125 L149.375,88.8203125 L149.375,88.1171875 C149.375,87.3984375 148.859375,86.9921875 147.921875,86.9921875 C147.101562,86.9921875 146.554688,87.2734375 146.367188,87.7890625 L144.273438,87.7890625 C144.421875,86.1953125 145.882812,85.1953125 148.046875,85.1953125 C150.328125,85.1953125 151.617188,86.2734375 151.617188,88.1171875 L151.617188,94 L149.414062,94 L149.414062,92.875 L149.273438,92.875 C148.828125,93.6640625 147.890625,94.1328125 146.773438,94.1328125 Z M153.65625,87.9140625 C153.65625,86.28125 155.09375,85.1953125 157.242188,85.1953125 C159.429688,85.1953125 160.71875,86.109375 160.84375,87.7578125 L158.742188,87.7578125 C158.625,87.203125 158.101562,86.859375 157.257812,86.859375 C156.445312,86.859375 155.84375,87.2265625 155.84375,87.7734375 C155.84375,88.1953125 156.210938,88.453125 157.007812,88.6328125 L158.625,88.984375 C160.296875,89.3515625 161.046875,90.0546875 161.046875,91.34375 C161.046875,93.0625 159.507812,94.1875 157.25,94.1875 C154.976562,94.1875 153.601562,93.2578125 153.445312,91.6015625 L155.664062,91.6015625 C155.835938,92.1875 156.390625,92.5234375 157.296875,92.5234375 C158.179688,92.5234375 158.789062,92.15625 158.789062,91.6015625 C158.789062,91.1796875 158.460938,90.921875 157.703125,90.7578125 L156.140625,90.40625 C154.46875,90.0390625 153.65625,89.2421875 153.65625,87.9140625 Z M165.40625,88.75 L168.289062,85.3828125 L170.875,85.3828125 L167.59375,89.078125 L171.101562,94 L168.40625,94 L165.890625,90.5 L165.265625,91.140625 L165.265625,94 L162.992188,94 L162.992188,82.09375 L165.265625,82.09375 L165.265625,88.75 L165.40625,88.75 Z" fill-opacity="0.5"></path>
                </g>
                <g id="Opera" transform="translate(197.000000, 1.000000)">
                    <path d="M48.7520856,40.9860381 C43.9009467,40.6671465 39.3487687,38.6900184 35.9087252,35.4134069 C32.2773468,31.9454604 30.144759,27.6324511 29.5747402,22.5899772 C29.4750866,21.6851222 29.4750866,19.3253242 29.5747402,18.4204692 C29.9653825,14.9764396 31.1054201,11.8233986 32.9470192,9.08491669 C34.5056021,6.77295237 36.6581206,4.67225376 38.9700849,3.20535226 C43.0558839,0.618343911 47.8113553,-0.441970759 52.6266189,0.167909484 C56.1184823,0.610371621 59.5425812,2.0055225 62.3567998,4.13811028 C63.1261259,4.7200875 63.3373916,4.90743634 64.3179833,5.86012508 C66.008109,7.49843083 67.3434677,9.33604385 68.3798655,11.4447148 C69.4840277,13.6849285 70.093908,15.7896132 70.4008412,18.4324276 C70.5124532,19.4090332 70.5004948,21.732956 70.3769243,22.7454369 C70.1138387,24.9258584 69.6355013,26.7395546 68.8302999,28.6050706 C67.8935557,30.781506 66.7096706,32.6031744 65.0195449,34.456732 C64.4335815,35.1024876 63.5566296,35.9196474 63.4968374,35.8797859 C63.4729205,35.8638413 63.4649482,35.8718136 63.4808928,35.8957305 C63.5327127,35.9834257 62.2730907,36.9680036 61.2486514,37.6456483 C58.5021972,39.4553583 55.4846852,40.5356037 52.1243646,40.9103014 C51.5384012,40.9740797 49.338049,41.0258996 48.7520856,40.9860381 Z M57.2266307,38.1917502 C58.8569642,37.9764984 60.3437964,37.5380224 61.7788087,36.8484192 C62.3328829,36.5813475 63.4250868,35.9754534 63.4250868,35.9316058 C63.4250868,35.9236335 63.2496964,35.991398 63.0424168,36.0830793 C60.1644198,37.3227705 56.9396282,37.4423549 53.9221162,36.4258878 C53.1009702,36.1468577 51.8732375,35.5449497 51.9330296,35.4492822 C51.9449881,35.4293515 52.0207248,35.4014485 52.1004477,35.38949 C52.4392701,35.3257117 53.1886654,35.0426954 53.7347674,34.7756236 C54.739276,34.2853278 55.5524496,33.6953782 56.413457,32.8343708 C58.7891997,30.4506559 60.3158934,26.9787233 60.8101754,22.8291459 C60.9018567,22.0478615 60.937732,19.759814 60.8739537,18.9267096 C60.3796717,12.7242674 57.3741181,7.67780737 53.176707,5.98768173 C52.8936907,5.87606966 52.4950761,5.73655457 52.2877966,5.68473468 C52.080517,5.62892865 51.9130989,5.57312261 51.9130989,5.55717803 C51.9130989,5.50535814 52.5628406,5.14660506 53.0332058,4.93533935 C55.2973363,3.92285843 58.1753333,3.63984211 60.6826187,4.18594402 C61.4798478,4.36133442 62.3607859,4.64435074 63.1620012,4.99114539 C63.3533361,5.07485444 63.5087958,5.13464662 63.5087958,5.12268819 C63.5087958,5.08681288 62.5680655,4.54868325 62.0538528,4.29356995 C60.4793253,3.50431316 58.9645901,3.0419203 57.2067,2.81471001 C56.4772354,2.71904252 54.5160518,2.70708409 53.8384071,2.79477929 C50.5259203,3.20933841 47.7675077,4.48889107 45.2203608,6.7928831 C43.936822,7.9528514 42.4300591,9.85424275 41.604927,11.3610057 C40.0024965,14.2708918 39.2052675,18.1175221 39.44045,21.7807897 C39.6437434,24.9497753 40.5047508,27.8716198 41.9397632,30.2473625 C42.9243411,31.877696 44.5467023,33.7312536 46.0335345,34.923111 C48.3215819,36.7567379 51.0560777,37.9127201 53.8184764,38.2076948 C54.0496728,38.2316117 54.3008,38.2595147 54.384509,38.267487 C54.7432621,38.3113346 56.7323487,38.2555286 57.2266307,38.1917502 Z" fill-opacity="0.3" fill-rule="nonzero"></path>
                    <path d="M31.90625,81.4375 C35.234375,81.4375 37.3203125,83.7109375 37.3203125,87.359375 C37.3203125,91.015625 35.2421875,93.2890625 31.90625,93.2890625 C28.5625,93.2890625 26.4765625,91.015625 26.4765625,87.359375 C26.4765625,83.703125 28.59375,81.4375 31.90625,81.4375 Z M31.90625,83.5078125 C30.078125,83.5078125 28.890625,85 28.890625,87.359375 C28.890625,89.7109375 30.0546875,91.21875 31.90625,91.21875 C33.7421875,91.21875 34.9140625,89.7109375 34.9140625,87.359375 C34.9140625,85 33.7421875,83.5078125 31.90625,83.5078125 Z M44.3046875,84.2421875 C46.484375,84.2421875 47.8203125,85.8984375 47.8203125,88.6875 C47.8203125,91.46875 46.5,93.1328125 44.34375,93.1328125 C43.109375,93.1328125 42.1640625,92.59375 41.7421875,91.6796875 L41.6015625,91.6796875 L41.6015625,95.859375 L39.328125,95.859375 L39.328125,84.3828125 L41.53125,84.3828125 L41.53125,85.796875 L41.671875,85.796875 C42.140625,84.828125 43.1171875,84.2421875 44.3046875,84.2421875 Z M43.53125,91.234375 C44.7578125,91.234375 45.484375,90.28125 45.484375,88.6875 C45.484375,87.109375 44.75,86.1484375 43.5390625,86.1484375 C42.328125,86.1484375 41.578125,87.1171875 41.578125,88.6953125 C41.578125,90.2734375 42.328125,91.234375 43.53125,91.234375 Z M53.3984375,85.9375 C52.34375,85.9375 51.6015625,86.671875 51.5234375,87.7890625 L55.1953125,87.7890625 C55.1484375,86.6484375 54.4609375,85.9375 53.3984375,85.9375 Z M55.2421875,90.546875 L57.359375,90.546875 C57.015625,92.171875 55.53125,93.1875 53.421875,93.1875 C50.796875,93.1875 49.25,91.53125 49.25,88.734375 C49.25,85.9296875 50.828125,84.1953125 53.390625,84.1953125 C55.9296875,84.1953125 57.4296875,85.8125 57.4296875,88.546875 L57.4296875,89.2421875 L51.515625,89.2421875 L51.515625,89.359375 C51.546875,90.640625 52.296875,91.4375 53.484375,91.4375 C54.3828125,91.4375 55,91.1171875 55.2421875,90.546875 Z M59.2890625,93 L59.2890625,84.3828125 L61.4921875,84.3828125 L61.4921875,85.7578125 L61.6328125,85.7578125 C61.859375,84.8984375 62.75,84.2421875 63.84375,84.2421875 C64.15625,84.2421875 64.5390625,84.28125 64.734375,84.3515625 L64.734375,86.421875 C64.5546875,86.3515625 64.0234375,86.28125 63.65625,86.28125 C62.4140625,86.28125 61.5625,87.015625 61.5625,88.2265625 L61.5625,93 L59.2890625,93 Z M69.203125,91.421875 C70.2578125,91.421875 71.0546875,90.75 71.0546875,89.875 L71.0546875,89.2421875 L69.3125,89.3515625 C68.3359375,89.421875 67.859375,89.7734375 67.859375,90.390625 C67.859375,91.03125 68.4140625,91.421875 69.203125,91.421875 Z M68.453125,93.1328125 C66.796875,93.1328125 65.6328125,92.1171875 65.6328125,90.5390625 C65.6328125,88.9765625 66.828125,88.0703125 68.96875,87.9453125 L71.0546875,87.8203125 L71.0546875,87.1171875 C71.0546875,86.3984375 70.5390625,85.9921875 69.6015625,85.9921875 C68.78125,85.9921875 68.234375,86.2734375 68.046875,86.7890625 L65.953125,86.7890625 C66.1015625,85.1953125 67.5625,84.1953125 69.7265625,84.1953125 C72.0078125,84.1953125 73.296875,85.2734375 73.296875,87.1171875 L73.296875,93 L71.09375,93 L71.09375,91.875 L70.953125,91.875 C70.5078125,92.6640625 69.5703125,93.1328125 68.453125,93.1328125 Z" fill-opacity="0.5"></path>
                </g>
            </g>
        </g>
    </g>
</svg>