<?xml version="1.0" encoding="UTF-8"?>
<svg width="269px" height="198px" viewBox="0 0 269 198" version="1.1" xmlns="http://www.w3.org/2000/svg" xmlns:xlink="http://www.w3.org/1999/xlink">
    <!-- Generator: Sketch 52.2 (67145) - http://www.bohemiancoding.com/sketch -->
    <title>MetaMask Login One Color</title>
    <desc>Created with Sketch.</desc>
    <defs>
        <radialGradient cx="98.5845732%" cy="0%" fx="98.5845732%" fy="0%" r="158.852875%" gradientTransform="translate(0.985846,0.000000),scale(0.620603,1.000000),rotate(180.000000),scale(1.000000,0.646540),translate(-0.985846,-0.000000)" id="radialGradient-1">
            <stop stop-color="#FFFFFF" stop-opacity="0.42" offset="0%"></stop>
            <stop stop-color="#FFFFFF" stop-opacity="0" offset="100%"></stop>
        </radialGradient>
        <path d="M0,0 L193,0 C196.313708,-6.08718376e-16 199,2.6862915 199,6 L199,123.5 L0,123.5 L0,0 Z M100.571301,72.1377353 L101,84 L103.923487,80.8436807 L106.405627,85.7940114 L108,85 L105.5,80 L109.303054,79.6644916 L100.571301,72.1377353 Z M109.118848,93.1796875 L107.786816,93.1796875 L107.786816,101 L108.818066,101 L108.818066,97.9545898 L108.716016,94.6835938 L111.278027,101 L112.067578,101 L114.634961,94.6674805 L114.538281,97.9545898 L114.538281,101 L115.569531,101 L115.569531,93.1796875 L114.232129,93.1796875 L111.675488,99.5605469 L109.118848,93.1796875 Z M119.846191,101.107422 C120.820155,101.107422 121.550616,100.733239 122.037598,99.9848633 L121.430664,99.512207 C121.248046,99.7485363 121.034995,99.9383131 120.791504,100.081543 C120.548013,100.224773 120.250816,100.296387 119.899902,100.296387 C119.405759,100.296387 118.998455,100.120038 118.677979,99.767334 C118.357502,99.4146304 118.190104,98.9518258 118.175781,98.3789062 L122.112793,98.3789062 L122.112793,97.965332 C122.112793,97.0379185 121.903322,96.3253606 121.484375,95.8276367 C121.065428,95.3299129 120.478194,95.0810547 119.722656,95.0810547 C119.26074,95.0810547 118.831952,95.2090645 118.436279,95.4650879 C118.040607,95.7211113 117.732667,96.0755999 117.512451,96.5285645 C117.292235,96.981529 117.182129,97.4962536 117.182129,98.0727539 L117.182129,98.2553711 C117.182129,99.1219119 117.429197,99.8138809 117.92334,100.331299 C118.417483,100.848717 119.058427,101.107422 119.846191,101.107422 Z M119.722656,95.8974609 C120.138023,95.8974609 120.467447,96.0362128 120.710937,96.3137207 C120.954428,96.5912286 121.090495,96.9824194 121.119141,97.4873047 L121.119141,97.5625 L118.208008,97.5625 C118.272461,97.0361302 118.440754,96.627036 118.712891,96.3352051 C118.985027,96.0433742 119.321613,95.8974609 119.722656,95.8974609 Z M124.810352,93.78125 L123.816699,93.78125 L123.816699,95.1884766 L122.758594,95.1884766 L122.758594,95.956543 L123.816699,95.956543 L123.816699,99.5605469 C123.816699,100.05469 123.929491,100.436034 124.155078,100.70459 C124.380665,100.973146 124.71546,101.107422 125.159473,101.107422 C125.406544,101.107422 125.660773,101.071615 125.922168,101 L125.922168,100.194336 C125.721646,100.237305 125.564096,100.258789 125.449512,100.258789 C125.216763,100.258789 125.052051,100.200603 124.955371,100.084229 C124.858691,99.9678542 124.810352,99.7932954 124.810352,99.5605469 L124.810352,95.956543 L125.895312,95.956543 L125.895312,95.1884766 L124.810352,95.1884766 L124.810352,93.78125 Z M130.843359,101 L131.885352,101 L131.885352,100.914062 C131.749283,100.598957 131.68125,100.174645 131.68125,99.6411133 L131.68125,96.9663086 C131.666927,96.3790661 131.469989,95.9180518 131.09043,95.583252 C130.71087,95.2484521 130.186299,95.0810547 129.516699,95.0810547 C129.094171,95.0810547 128.706561,95.1598299 128.353857,95.3173828 C128.001154,95.4749357 127.72186,95.6888821 127.515967,95.9592285 C127.310074,96.2295749 127.207129,96.5097642 127.207129,96.7998047 L128.206152,96.7998047 C128.206152,96.5455716 128.326106,96.3289397 128.566016,96.1499023 C128.805926,95.970865 129.103123,95.8813477 129.457617,95.8813477 C129.862242,95.8813477 130.168391,95.9842926 130.376074,96.1901855 C130.583758,96.3960785 130.687598,96.6726871 130.687598,97.0200195 L130.687598,97.4765625 L129.720801,97.4765625 C128.886487,97.4765625 128.239276,97.6439599 127.77915,97.9787598 C127.319024,98.3135596 127.088965,98.7835256 127.088965,99.3886719 C127.088965,99.8863957 127.272475,100.29728 127.639502,100.621338 C128.006529,100.945396 128.476495,101.107422 129.049414,101.107422 C129.690368,101.107422 130.241795,100.867515 130.703711,100.387695 C130.739518,100.681317 130.786067,100.885416 130.843359,101 Z M129.194434,100.242676 C128.868586,100.242676 128.601824,100.154949 128.394141,99.9794922 C128.186457,99.8040356 128.082617,99.5605484 128.082617,99.2490234 C128.082617,98.5364548 128.691335,98.1801758 129.908789,98.1801758 L130.687598,98.1801758 L130.687598,99.3725586 C130.562272,99.6303724 130.359962,99.8398429 130.080664,100.000977 C129.801366,100.16211 129.505959,100.242676 129.194434,100.242676 Z M134.92666,93.1796875 L133.594629,93.1796875 L133.594629,101 L134.625879,101 L134.625879,97.9545898 L134.523828,94.6835938 L137.08584,101 L137.875391,101 L140.442773,94.6674805 L140.346094,97.9545898 L140.346094,101 L141.377344,101 L141.377344,93.1796875 L140.039941,93.1796875 L137.483301,99.5605469 L134.92666,93.1796875 Z M146.830273,101 L147.872266,101 L147.872266,100.914062 C147.736197,100.598957 147.668164,100.174645 147.668164,99.6411133 L147.668164,96.9663086 C147.653841,96.3790661 147.456903,95.9180518 147.077344,95.583252 C146.697785,95.2484521 146.173213,95.0810547 145.503613,95.0810547 C145.081085,95.0810547 144.693475,95.1598299 144.340771,95.3173828 C143.988068,95.4749357 143.708774,95.6888821 143.502881,95.9592285 C143.296988,96.2295749 143.194043,96.5097642 143.194043,96.7998047 L144.193066,96.7998047 C144.193066,96.5455716 144.31302,96.3289397 144.55293,96.1499023 C144.79284,95.970865 145.090037,95.8813477 145.444531,95.8813477 C145.849156,95.8813477 146.155305,95.9842926 146.362988,96.1901855 C146.570672,96.3960785 146.674512,96.6726871 146.674512,97.0200195 L146.674512,97.4765625 L145.707715,97.4765625 C144.873401,97.4765625 144.22619,97.6439599 143.766064,97.9787598 C143.305938,98.3135596 143.075879,98.7835256 143.075879,99.3886719 C143.075879,99.8863957 143.259389,100.29728 143.626416,100.621338 C143.993443,100.945396 144.463409,101.107422 145.036328,101.107422 C145.677282,101.107422 146.228709,100.867515 146.690625,100.387695 C146.726432,100.681317 146.772981,100.885416 146.830273,101 Z M145.181348,100.242676 C144.8555,100.242676 144.588738,100.154949 144.381055,99.9794922 C144.173371,99.8040356 144.069531,99.5605484 144.069531,99.2490234 C144.069531,98.5364548 144.678249,98.1801758 145.895703,98.1801758 L146.674512,98.1801758 L146.674512,99.3725586 C146.549186,99.6303724 146.346876,99.8398429 146.067578,100.000977 C145.78828,100.16211 145.492873,100.242676 145.181348,100.242676 Z M152.80957,99.4584961 C152.80957,99.7127291 152.695883,99.9159335 152.468506,100.068115 C152.241128,100.220297 151.939455,100.296387 151.563477,100.296387 C151.155271,100.296387 150.826743,100.198813 150.577881,100.003662 C150.329019,99.8085114 150.195638,99.5444353 150.177734,99.2114258 L149.184082,99.2114258 C149.184082,99.5551775 149.285237,99.8747544 149.487549,100.170166 C149.689861,100.465578 149.97005,100.695637 150.328125,100.860352 C150.6862,101.025066 151.097979,101.107422 151.563477,101.107422 C152.225915,101.107422 152.764809,100.950767 153.180176,100.637451 C153.595542,100.324136 153.803223,99.9078802 153.803223,99.3886719 C153.803223,99.0771469 153.728923,98.8130707 153.580322,98.5964355 C153.431721,98.3798003 153.203452,98.1944995 152.895508,98.0405273 C152.587564,97.8865552 152.185631,97.7540696 151.689697,97.6430664 C151.193764,97.5320632 150.850912,97.4156907 150.661133,97.2939453 C150.471353,97.1721999 150.376465,96.9913749 150.376465,96.7514648 C150.376465,96.4972318 150.478515,96.2913419 150.682617,96.1337891 C150.88672,95.9762362 151.169595,95.8974609 151.53125,95.8974609 C151.882163,95.8974609 152.173095,95.99593 152.404053,96.1928711 C152.635011,96.3898122 152.750488,96.6243476 152.750488,96.8964844 L153.749512,96.8964844 C153.749512,96.3665338 153.544517,95.9314796 153.134521,95.5913086 C152.724526,95.2511376 152.190107,95.0810547 151.53125,95.0810547 C150.904619,95.0810547 150.389895,95.2457666 149.987061,95.5751953 C149.584227,95.904624 149.382813,96.307452 149.382813,96.7836914 C149.382813,97.0701512 149.453531,97.317219 149.594971,97.5249023 C149.73641,97.7325857 149.954833,97.9116203 150.250244,98.0620117 C150.545656,98.2124031 150.944903,98.3413081 151.447998,98.4487305 C151.951093,98.5561529 152.303791,98.6841627 152.506104,98.8327637 C152.708416,98.9813647 152.80957,99.1899401 152.80957,99.4584961 Z M156.919727,98.309082 L158.944629,101 L160.110156,101 L157.585742,97.6162109 L159.846973,95.1884766 L158.638477,95.1884766 L156.828418,97.1005859 L156.29668,97.7397461 L156.29668,92.75 L155.303027,92.75 L155.303027,101 L156.29668,101 L156.29668,98.9589844 L156.919727,98.309082 Z" id="path-2"></path>
        <linearGradient x1="100%" y1="50%" x2="6.47959734%" y2="2423.79138%" id="linearGradient-4">
            <stop stop-color="#FFFFFF" offset="0%"></stop>
            <stop stop-color="#FFFFFF" stop-opacity="0" offset="100%"></stop>
        </linearGradient>
        <radialGradient cx="97.4006776%" cy="17.9086581%" fx="97.4006776%" fy="17.9086581%" r="418.011241%" gradientTransform="translate(0.974007,0.179087),scale(0.233010,1.000000),rotate(180.000000),scale(1.000000,0.575678),translate(-0.974007,-0.179087)" id="radialGradient-5">
            <stop stop-color="#FFFFFF" stop-opacity="0.36" offset="0%"></stop>
            <stop stop-color="#FFFFFF" stop-opacity="0" offset="100%"></stop>
        </radialGradient>
        <linearGradient x1="96.9642987%" y1="50%" x2="19.4932919%" y2="50%" id="linearGradient-6">
            <stop stop-color="#FFFFFF" stop-opacity="0.747424139" offset="0%"></stop>
            <stop stop-color="#FFFFFF" stop-opacity="0" offset="100%"></stop>
        </linearGradient>
        <path d="M0.5,0 L65.5,0 C65.7761424,-5.07265313e-17 66,0.223857625 66,0.5 L66,18.5 C66,18.7761424 65.7761424,19 65.5,19 L0.5,19 C0.223857625,19 3.38176876e-17,18.7761424 0,18.5 L0,0.5 C-3.38176876e-17,0.223857625 0.223857625,5.07265313e-17 0.5,0 Z M8.11884765,5.1796875 L6.7868164,5.1796875 L6.7868164,13 L7.8180664,13 L7.8180664,9.95458984 L7.71601561,6.68359375 L10.2780273,13 L11.0675781,13 L13.6349609,6.66748047 L13.5382812,9.95458984 L13.5382812,13 L14.5695312,13 L14.5695312,5.1796875 L13.2321289,5.1796875 L10.6754883,11.5605469 L8.11884765,5.1796875 Z M18.8461914,13.1074219 C19.8201546,13.1074219 20.550616,12.7332394 21.0375976,11.9848633 L20.4306641,11.512207 C20.248046,11.7485363 20.0349947,11.9383131 19.7915039,12.081543 C19.5480131,12.2247729 19.2508155,12.2963867 18.8999023,12.2963867 C18.4057592,12.2963867 17.9984554,12.1200376 17.6779785,11.767334 C17.3575016,11.4146304 17.1901042,10.9518258 17.1757812,10.3789062 L21.112793,10.3789062 L21.112793,9.96533203 C21.112793,9.03791854 20.9033224,8.32536056 20.484375,7.82763672 C20.0654276,7.32991288 19.4781939,7.08105469 18.7226562,7.08105469 C18.2607399,7.08105469 17.8319518,7.20906448 17.4362793,7.46508789 C17.0406067,7.72111131 16.7326671,8.07559995 16.5124512,8.52856445 C16.2922352,8.98152896 16.1821289,9.49625363 16.1821289,10.0727539 L16.1821289,10.2553711 C16.1821289,11.1219119 16.4291967,11.8138809 16.9233398,12.3312988 C17.4174829,12.8487168 18.058427,13.1074219 18.8461914,13.1074219 Z M18.7226562,7.89746094 C19.1380229,7.89746094 19.4674467,8.03621281 19.7109375,8.3137207 C19.9544283,8.5912286 20.0904946,8.98241935 20.1191406,9.48730469 L20.1191406,9.5625 L17.2080078,9.5625 C17.2724613,9.03613018 17.4407538,8.62703596 17.7128906,8.33520508 C17.9850274,8.04337419 18.3216126,7.89746094 18.7226562,7.89746094 Z M23.8103516,5.78125 L22.8166992,5.78125 L22.8166992,7.18847656 L21.7585937,7.18847656 L21.7585937,7.95654297 L22.8166992,7.95654297 L22.8166992,11.5605469 C22.8166992,12.05469 22.9294911,12.4360338 23.1550781,12.7045898 C23.3806652,12.9731459 23.71546,13.1074219 24.1594727,13.1074219 C24.4065442,13.1074219 24.6607734,13.0716149 24.922168,13 L24.922168,12.1943359 C24.7216461,12.2373049 24.5640956,12.2587891 24.4495117,12.2587891 C24.2167632,12.2587891 24.0520513,12.2006028 23.9553711,12.0842285 C23.8586909,11.9678542 23.8103516,11.7932954 23.8103516,11.5605469 L23.8103516,7.95654297 L24.8953125,7.95654297 L24.8953125,7.18847656 L23.8103516,7.18847656 L23.8103516,5.78125 Z M29.8433594,13 L30.8853516,13 L30.8853516,12.9140625 C30.7492832,12.5989568 30.68125,12.1746446 30.68125,11.6411133 L30.68125,8.96630859 C30.666927,8.37906607 30.4699889,7.9180518 30.0904297,7.58325195 C29.7108705,7.2484521 29.1862989,7.08105469 28.5166992,7.08105469 C28.0941711,7.08105469 27.706561,7.15982994 27.3538574,7.31738281 C27.0011538,7.47493568 26.7218598,7.68888211 26.5159668,7.95922852 C26.3100738,8.22957492 26.2071289,8.50976417 26.2071289,8.79980469 L27.2061523,8.79980469 C27.2061523,8.54557165 27.3261056,8.3289397 27.5660156,8.14990234 C27.8059257,7.97086499 28.1031232,7.88134766 28.4576172,7.88134766 C28.8622416,7.88134766 29.1683909,7.98429259 29.3760742,8.19018555 C29.5837575,8.3960785 29.6875977,8.67268707 29.6875977,9.02001953 L29.6875977,9.4765625 L28.7208008,9.4765625 C27.8864867,9.4765625 27.2392764,9.64395991 26.7791504,9.97875977 C26.3190244,10.3135596 26.0889648,10.7835256 26.0889648,11.3886719 C26.0889648,11.8863957 26.2724754,12.2972803 26.639502,12.6213379 C27.0065285,12.9453955 27.4764945,13.1074219 28.0494141,13.1074219 C28.6903678,13.1074219 29.2417946,12.8675154 29.7037109,12.3876953 C29.7395184,12.6813166 29.7860674,12.8854161 29.8433594,13 Z M28.1944336,12.2426758 C27.8685856,12.2426758 27.601824,12.1549488 27.3941406,11.9794922 C27.1864573,11.8040356 27.0826172,11.5605484 27.0826172,11.2490234 C27.0826172,10.5364548 27.6913351,10.1801758 28.9087891,10.1801758 L29.6875977,10.1801758 L29.6875977,11.3725586 C29.5622715,11.6303724 29.3599623,11.8398429 29.0806641,12.0009766 C28.8013658,12.1621102 28.5059586,12.2426758 28.1944336,12.2426758 Z M33.9266602,5.1796875 L32.5946289,5.1796875 L32.5946289,13 L33.6258789,13 L33.6258789,9.95458984 L33.5238281,6.68359375 L36.0858398,13 L36.8753906,13 L39.4427734,6.66748047 L39.3460938,9.95458984 L39.3460938,13 L40.3773438,13 L40.3773438,5.1796875 L39.0399414,5.1796875 L36.4833008,11.5605469 L33.9266602,5.1796875 Z M45.8302734,13 L46.8722656,13 L46.8722656,12.9140625 C46.7361972,12.5989568 46.6681641,12.1746446 46.6681641,11.6411133 L46.6681641,8.96630859 C46.6538411,8.37906607 46.4569029,7.9180518 46.0773438,7.58325195 C45.6977846,7.2484521 45.173213,7.08105469 44.5036133,7.08105469 C44.0810851,7.08105469 43.6934751,7.15982994 43.3407715,7.31738281 C42.9880679,7.47493568 42.7087738,7.68888211 42.5028809,7.95922852 C42.2969879,8.22957492 42.194043,8.50976417 42.194043,8.79980469 L43.1930664,8.79980469 C43.1930664,8.54557165 43.3130196,8.3289397 43.5529297,8.14990234 C43.7928397,7.97086499 44.0900373,7.88134766 44.4445313,7.88134766 C44.8491557,7.88134766 45.155305,7.98429259 45.3629883,8.19018555 C45.5706716,8.3960785 45.6745117,8.67268707 45.6745117,9.02001953 L45.6745117,9.4765625 L44.7077148,9.4765625 C43.8734008,9.4765625 43.2261905,9.64395991 42.7660645,9.97875977 C42.3059385,10.3135596 42.0758789,10.7835256 42.0758789,11.3886719 C42.0758789,11.8863957 42.2593894,12.2972803 42.626416,12.6213379 C42.9934426,12.9453955 43.4634086,13.1074219 44.0363281,13.1074219 C44.6772819,13.1074219 45.2287086,12.8675154 45.690625,12.3876953 C45.7264325,12.6813166 45.7729815,12.8854161 45.8302734,13 Z M44.1813477,12.2426758 C43.8554997,12.2426758 43.588738,12.1549488 43.3810547,11.9794922 C43.1733714,11.8040356 43.0695313,11.5605484 43.0695313,11.2490234 C43.0695313,10.5364548 43.6782491,10.1801758 44.8957031,10.1801758 L45.6745117,10.1801758 L45.6745117,11.3725586 C45.5491856,11.6303724 45.3468764,11.8398429 45.0675781,12.0009766 C44.7882799,12.1621102 44.4928727,12.2426758 44.1813477,12.2426758 Z M51.8095703,11.4584961 C51.8095703,11.7127291 51.6958833,11.9159335 51.4685059,12.0681152 C51.2411284,12.220297 50.939455,12.2963867 50.5634766,12.2963867 C50.1552714,12.2963867 49.8267428,12.1988128 49.5778809,12.0036621 C49.3290189,11.8085114 49.1956381,11.5444353 49.1777344,11.2114258 L48.184082,11.2114258 C48.184082,11.5551775 48.2852366,11.8747544 48.4875488,12.170166 C48.689861,12.4655776 48.9700503,12.6956372 49.328125,12.8603516 C49.6861997,13.0250659 50.0979795,13.1074219 50.5634766,13.1074219 C51.2259148,13.1074219 51.7648091,12.9507665 52.1801758,12.6374512 C52.5955424,12.3241358 52.8032227,11.9078802 52.8032227,11.3886719 C52.8032227,11.0771469 52.7289233,10.8130707 52.5803223,10.5964355 C52.4317213,10.3798003 52.2034521,10.1944995 51.8955078,10.0405273 C51.5875636,9.88655522 51.1856307,9.75406957 50.6896973,9.64306641 C50.1937638,9.53206325 49.8509124,9.41569071 49.6611328,9.29394531 C49.4713532,9.17219991 49.3764649,8.9913749 49.3764649,8.75146484 C49.3764649,8.4972318 49.4785146,8.29134193 49.6826172,8.13378906 C49.8867198,7.97623619 50.1695946,7.89746094 50.53125,7.89746094 C50.8821632,7.89746094 51.1730946,7.99593 51.4040527,8.19287109 C51.6350109,8.38981218 51.7504883,8.6243476 51.7504883,8.89648438 L52.7495117,8.89648438 C52.7495117,8.36653381 52.544517,7.93147957 52.1345215,7.59130859 C51.724526,7.25113762 51.1901075,7.08105469 50.53125,7.08105469 C49.9046193,7.08105469 49.3898946,7.24576658 48.9870606,7.57519531 C48.5842265,7.90462404 48.3828125,8.30745205 48.3828125,8.78369141 C48.3828125,9.07015117 48.4535312,9.31721901 48.5949707,9.52490234 C48.7364102,9.73258567 48.9548325,9.91162034 49.2502441,10.0620117 C49.5456558,10.2124031 49.9449031,10.3413081 50.4479981,10.4487305 C50.951093,10.5561529 51.3037913,10.6841627 51.5061035,10.8327637 C51.7084157,10.9813647 51.8095703,11.1899401 51.8095703,11.4584961 Z M55.9197266,10.309082 L57.9446289,13 L59.1101563,13 L56.5857422,9.61621094 L58.8469727,7.18847656 L57.6384766,7.18847656 L55.828418,9.10058594 L55.2966797,9.73974609 L55.2966797,4.75 L54.3030274,4.75 L54.3030274,13 L55.2966797,13 L55.2966797,10.9589844 L55.9197266,10.309082 Z" id="path-7"></path>
        <filter x="-24.2%" y="-57.9%" width="148.5%" height="268.4%" filterUnits="objectBoundingBox" id="filter-8">
            <feOffset dx="0" dy="5" in="SourceAlpha" result="shadowOffsetOuter1"></feOffset>
            <feGaussianBlur stdDeviation="4.5" in="shadowOffsetOuter1" result="shadowBlurOuter1"></feGaussianBlur>
            <feColorMatrix values="0 0 0 0 1   0 0 0 0 1   0 0 0 0 1  0 0 0 0.250311368 0" type="matrix" in="shadowBlurOuter1"></feColorMatrix>
        </filter>
        <polygon id="path-9" points="100.571301 72.1377353 101 84 103.923487 80.8436807 106.405627 85.7940114 108 85 105.5 80 109.303054 79.6644916"></polygon>
        <filter x="-75.4%" y="-42.1%" width="266.4%" height="206.9%" filterUnits="objectBoundingBox" id="filter-10">
            <feMorphology radius="1" operator="dilate" in="SourceAlpha" result="shadowSpreadOuter1"></feMorphology>
            <feOffset dx="0" dy="2" in="shadowSpreadOuter1" result="shadowOffsetOuter1"></feOffset>
            <feMorphology radius="1" operator="erode" in="SourceAlpha" result="shadowInner"></feMorphology>
            <feOffset dx="0" dy="2" in="shadowInner" result="shadowInner"></feOffset>
            <feComposite in="shadowOffsetOuter1" in2="shadowInner" operator="out" result="shadowOffsetOuter1"></feComposite>
            <feGaussianBlur stdDeviation="1.5" in="shadowOffsetOuter1" result="shadowBlurOuter1"></feGaussianBlur>
            <feColorMatrix values="0 0 0 0 1   0 0 0 0 1   0 0 0 0 1  0 0 0 0.346665534 0" type="matrix" in="shadowBlurOuter1"></feColorMatrix>
        </filter>
    </defs>
    <g id="MetaMask-Login-One-Color" stroke="none" stroke-width="1" fill="none" fill-rule="evenodd">
        <g id="MetaMask-Login" transform="translate(37.000000, 20.000000)">
            <mask id="mask-3" fill="white">
                <use xlink:href="#path-2"></use>
            </mask>
            <use id="Combined-Shape" fill="url(#radialGradient-1)" xlink:href="#path-2"></use>
            <rect id="Rectangle" fill="url(#linearGradient-4)" mask="url(#mask-3)" x="-4" y="78.5" width="206" height="1"></rect>
            <rect id="Header" fill="url(#radialGradient-5)" mask="url(#mask-3)" x="-4" y="-6" width="206" height="48"></rect>
            <path d="M177,56.5 C176.171573,56.5 175.5,55.8284271 175.5,55 C175.5,54.1715729 176.171573,53.5 177,53.5 C177.828427,53.5 178.5,54.1715729 178.5,55 C178.5,55.8284271 177.828427,56.5 177,56.5 Z M177,66.5 C176.171573,66.5 175.5,65.8284271 175.5,65 C175.5,64.1715729 176.171573,63.5 177,63.5 C177.828427,63.5 178.5,64.1715729 178.5,65 C178.5,65.8284271 177.828427,66.5 177,66.5 Z M177,61.5 C176.171573,61.5 175.5,60.8284271 175.5,60 C175.5,59.1715729 176.171573,58.5 177,58.5 C177.828427,58.5 178.5,59.1715729 178.5,60 C178.5,60.8284271 177.828427,61.5 177,61.5 Z" id="Elipses" fill="#FFFFFF" mask="url(#mask-3)"></path>
            <g id="Avatar" mask="url(#mask-3)" fill="#FFFFFF">
                <g transform="translate(135.580000, 51.500000)" id="Shape">
                    <path d="M9.42,17 C4.72557963,17 0.92,13.1944204 0.92,8.5 C0.92,3.80557963 4.72557963,0 9.42,0 C14.1144204,0 17.92,3.80557963 17.92,8.5 C17.92,13.1944204 14.1144204,17 9.42,17 Z M9.42,8 C10.9387831,8 12.17,6.76878306 12.17,5.25 C12.17,3.73121694 10.9387831,2.5 9.42,2.5 C7.90121694,2.5 6.67,3.73121694 6.67,5.25 C6.67,6.76878306 7.90121694,8 9.42,8 Z M3.67,11.6258557 C4.78476228,13.6369669 6.94182001,15 9.42,15 C11.89818,15 14.0552377,13.6369669 15.17,11.6258557 C13.782468,10.0186161 11.7212238,9 9.42,9 C7.11877617,9 5.05753205,10.0186161 3.67,11.6258557 Z"></path>
                </g>
            </g>
            <rect id="Split" fill="#FFFFFF" mask="url(#mask-3)" x="122" y="52" width="1" height="16"></rect>
            <g id="Metamask-Icon" mask="url(#mask-3)">
                <g transform="translate(84.000000, 46.000000)">
                    <path d="M14,28 C6.2680135,28 0,21.7319865 0,14 C0,6.2680135 6.2680135,0 14,0 C21.7319865,0 28,6.2680135 28,14 C28,21.7319865 21.7319865,28 14,28 Z M21.4525721,20.5 L22.1126997,19.2538826 L21.3616985,18.8015518 L19.9550213,17.2553126 L20.0701084,15.3078925 L19.7735312,14 L19.9550213,12.3539335 L20.4555669,11.6628949 L20.4555669,10.9180114 L20.813673,10.5 L20.3091707,10.1529713 L20.7078181,9.81215477 L20.2205469,9.27347614 L21.7551851,4.81042563 L16.109375,6.3053364 L12.6327833,6.3053364 L10.6114363,3.8846514 L7.84520549,6.3053364 L6.66717307,9.04438853 L6.53977806,10.1529713 L6,10.3739288 L6.96116956,11.0069158 L6.20989004,11.2248464 L7.16980782,11.7520689 L6.66717307,12 L7.35159067,12.8596743 L5.38078848,18 L6.96116956,21.7139776 L12.2971126,19.9909562 L17.8251362,21.8165341 L20.4555669,21.7139776 L21.4525721,20.5 Z" id="Combined-Shape" fill="#EEEEEE"></path>
                    <path d="M13.5,15.4130029 L15.0354619,14.5 L15.8378978,15.9328564 L13.5,15.4130029 Z M18.8277102,15.5 L18.9404395,14.4340254 L19.5137939,15.2164282 L18.8277102,15.5 Z M20.2205469,20.6249422 L20.2205469,19.2764633 L20.4932432,19.0032097 L21.3751981,18.8015518 L22.1126997,19.2764633 L21.4576434,20.5 L20.2205469,20.6249422 Z" id="Combined-Shape" fill="#FFFFFF"></path>
                    <polygon id="Path-10" fill-opacity="0.25" fill="#FFFFFF" points="10.6586517 4.49758916 8.3223992 6.53327171 7.1961358 9.14884903 7.1961358 10.2112872 6.85244797 10.5 7.45170544 10.984809 7.02814649 11.3329789 7.65259339 11.8666183 7.1961358 12.3592017 10.3824644 12.3592017 13.6922302 8.82766137"></polygon>
                    <polygon id="Path-11" fill-opacity="0.25" fill="#FFFFFF" points="17.3247972 9.0651233 20.9438461 6 19.6738685 9.33028095 20.0243691 9.90614552 19.6738685 10.5 20.2453961 10.6528175 20.0243691 10.9911226 20.1540664 11.4894653 19.935609 11.8957563"></polygon>
                    <polygon id="Path-2" fill-opacity="0.25" fill="#FFFFFF" points="12.335155 20.1193175 20.59375 19.2197468 21.6451497 20.7392679 20.8377429 22.5 17 22.7453977"></polygon>
                </g>
            </g>
            <g id="Search" mask="url(#mask-3)" fill="url(#linearGradient-6)">
                <g transform="translate(-18.000000, 46.000000)" id="Combined-Shape">
                    <path d="M14,0 L78,0 C85.7319865,-1.42034288e-15 92,6.2680135 92,14 C92,21.7319865 85.7319865,28 78,28 L14,28 C6.2680135,28 9.46895252e-16,21.7319865 0,14 C-9.46895252e-16,6.2680135 6.2680135,1.42034288e-15 14,0 Z M74,16.9026682 L71.1754941,18.3875988 L71.7149268,15.2424653 L69.4298535,13.0150694 L72.5877471,12.5562006 L74,9.6946636 L75.4122529,12.5562006 L78.5701465,13.0150694 L76.2850732,15.2424653 L76.8245059,18.3875988 L74,16.9026682 Z M69.1832976,21.1296221 L74,18.5973318 L78.8167024,21.1296221 L77.8967941,15.7661452 L81.7935882,11.9677097 L76.4083512,11.1851889 L74,6.3053364 L71.5916488,11.1851889 L66.2064118,11.9677097 L70.1032059,15.7661452 L69.1832976,21.1296221 Z"></path>
                </g>
            </g>
            <g id="Metamask-Higlight" mask="url(#mask-3)">
                <g transform="translate(101.000000, 88.000000)" id="Combined-Shape">
                    <g>
                        <use fill="black" fill-opacity="1" filter="url(#filter-8)" xlink:href="#path-7"></use>
                        <use fill="#FFFFFF" fill-rule="evenodd" xlink:href="#path-7"></use>
                    </g>
                </g>
            </g>
            <g id="Pointer" mask="url(#mask-3)">
                <use fill="black" fill-opacity="1" filter="url(#filter-10)" xlink:href="#path-9"></use>
                <path stroke="#FFFFFF" stroke-width="1" d="M106.275769,80.433503 L108.671177,85.2243204 L106.182167,86.4638688 L103.799962,81.7128467 L100.544055,85.2280604 L100.030264,71.0112404 L110.525996,80.0585446 L106.275769,80.433503 Z"></path>
            </g>
        </g>
    </g>
</svg>