<?xml version="1.0" encoding="UTF-8"?>
<svg width="141px" height="23px" viewBox="0 0 141 23" version="1.1" xmlns="http://www.w3.org/2000/svg" xmlns:xlink="http://www.w3.org/1999/xlink">
    <!-- Generator: Sketch 50.2 (55047) - http://www.bohemiancoding.com/sketch -->
    <title>Icon/Brand/Wordmark</title>
    <desc>Created with Sketch.</desc>
    <defs></defs>
    <g id="Marketing" stroke="none" stroke-width="1" fill="none" fill-rule="evenodd">
        <g id="Marketing---Desktop" transform="translate(-129.000000, -40.000000)" fill="#FFFFFF">
            <g id="1---Header">
                <g id="Navigation-Bar" transform="translate(129.000000, 40.000000)">
                    <g id="Icon/Brand/Wordmark">
                        <path d="M0,21.7665 L0,0.9135 C0,0.5985 0.252,0.315 0.5985,0.315 L9.6075,0.315 C13.3875,0.315 16.4745,3.339 16.4745,7.0875 C16.4745,9.9855 14.553,12.348 11.8125,13.4505 L16.128,21.4515 C16.3485,21.861 16.128,22.365 15.5925,22.365 L12.285,22.365 C12.0015,22.365 11.844,22.2075 11.781,22.0815 L7.5915,13.734 L4.095,13.734 L4.095,21.7665 C4.095,22.0815 3.8115,22.365 3.4965,22.365 L0.5985,22.365 C0.252,22.365 0,22.0815 0,21.7665 Z M4.1265,10.3635 L9.261,10.3635 C10.9305,10.3635 12.3795,8.9145 12.3795,7.1505 C12.3795,5.481 10.9305,4.095 9.261,4.095 L4.1265,4.095 L4.1265,10.3635 Z M20.979,21.7665 L20.979,0.9135 C20.979,0.5985 21.231,0.315 21.5775,0.315 L34.398,0.315 C34.7445,0.315 34.9965,0.5985 34.9965,0.9135 L34.9965,3.4965 C34.9965,3.8115 34.7445,4.095 34.398,4.095 L25.074,4.095 L25.074,9.261 L32.8545,9.261 C33.1695,9.261 33.453,9.5445 33.453,9.8595 L33.453,12.474 C33.453,12.8205 33.1695,13.0725 32.8545,13.0725 L25.074,13.0725 L25.074,18.585 L34.398,18.585 C34.7445,18.585 34.9965,18.8685 34.9965,19.1835 L34.9965,21.7665 C34.9965,22.0815 34.7445,22.365 34.398,22.365 L21.5775,22.365 C21.231,22.365 20.979,22.0815 20.979,21.7665 Z M39.501,21.7665 L39.501,0.9135 C39.501,0.5985 39.753,0.315 40.0995,0.315 L42.9975,0.315 C43.3125,0.315 43.596,0.5985 43.596,0.9135 L43.596,18.585 L51.6285,18.585 C51.975,18.585 52.227,18.8685 52.227,19.1835 L52.227,21.7665 C52.227,22.0815 51.975,22.365 51.6285,22.365 L40.0995,22.365 C39.753,22.365 39.501,22.0815 39.501,21.7665 Z M53.613,11.3715 C53.613,5.0715 58.6215,0 64.9215,0 C71.2215,0 76.2615,5.0715 76.2615,11.3715 C76.2615,17.6715 71.2215,22.68 64.9215,22.68 C58.6215,22.68 53.613,17.6715 53.613,11.3715 Z M57.708,11.3715 C57.708,15.3405 60.9525,18.585 64.9215,18.585 C68.8905,18.585 72.1665,15.3405 72.1665,11.3715 C72.1665,7.4025 68.8905,4.095 64.9215,4.095 C60.9525,4.095 57.708,7.4025 57.708,11.3715 Z M77.8995,22.365 C77.427,22.365 77.175,21.9555 77.364,21.546 L87.1605,0.3465 C87.255,0.1575 87.4125,0 87.696,0 L88.011,0 C88.326,0 88.452,0.1575 88.5465,0.3465 L98.2485,21.546 C98.4375,21.9555 98.1855,22.365 97.713,22.365 L94.9725,22.365 C94.5,22.365 94.2795,22.176 94.059,21.735 L92.5155,18.333 L83.097,18.333 L81.5535,21.735 C81.4275,22.05 81.144,22.365 80.64,22.365 L77.8995,22.365 Z M84.6405,14.8365 L90.972,14.8365 L87.822,7.9065 L87.7275,7.9065 L84.6405,14.8365 Z M101.115,21.7665 L101.115,0.567 C101.115,0.252 101.3985,0 101.7135,0 L102.501,0 L115.605,13.923 L115.6365,13.923 L115.6365,0.9135 C115.6365,0.5985 115.8885,0.315 116.235,0.315 L119.133,0.315 C119.448,0.315 119.7315,0.5985 119.7315,0.9135 L119.7315,22.113 C119.7315,22.428 119.448,22.68 119.133,22.68 L118.377,22.68 L105.21,8.2215 L105.1785,8.2215 L105.1785,21.7665 C105.1785,22.0815 104.9265,22.365 104.58,22.365 L101.7135,22.365 C101.3985,22.365 101.115,22.0815 101.115,21.7665 Z" id="RELOANR"></path>
                        <path d="M124.300003,21.7665 L124.300003,0.9135 C124.300003,0.5985 124.552003,0.315 124.898503,0.315 L133.907503,0.315 C137.687503,0.315 140.774503,3.339 140.774503,7.0875 C140.774503,9.9855 138.853003,12.348 136.112503,13.4505 L140.428003,21.4515 C140.648503,21.861 140.428003,22.365 139.892503,22.365 L136.585003,22.365 C136.301503,22.365 136.144003,22.2075 136.081003,22.0815 L131.891503,13.734 L128.395003,13.734 L128.395003,21.7665 C128.395003,22.0815 128.111503,22.365 127.796503,22.365 L124.898503,22.365 C124.552003,22.365 124.300003,22.0815 124.300003,21.7665 Z M128.426503,10.3635 L133.561003,10.3635 C135.230503,10.3635 136.679503,8.9145 136.679503,7.1505 C136.679503,5.481 135.230503,4.095 133.561003,4.095 L128.426503,4.095 L128.426503,10.3635 Z" id="Combined-Shape" transform="translate(132.537253, 11.340000) scale(-1, 1) translate(-132.537253, -11.340000) "></path>
                    </g>
                </g>
            </g>
        </g>
    </g>
</svg>